<svg class="svg-icon" style="width: 1em;height: 1em;vertical-align: middle;fill: currentColor;overflow: hidden;" viewBox="0 0 1024 1024" version="1.1" xmlns="http://www.w3.org/2000/svg"><path d="M889.6 874.666667H134.4C59.733333 874.666667 0 814.933333 0 740.266667V281.6c0-74.666667 59.733333-134.4 134.4-134.4h755.2c74.666667 0 134.4 59.733333 134.4 134.4v458.666667c0 74.666667-59.733333 134.4-134.4 134.4zM140.8 192C87.466667 192 42.666667 234.666667 42.666667 290.133333v445.866667C42.666667 789.333333 87.466667 832 140.8 832h742.4c53.333333 0 98.133333-42.666667 98.133333-98.133333V288c0-53.333333-44.8-98.133333-98.133333-98.133333H140.8V192z m736 170.666667H616.533333c-10.666667 0-19.2-8.533333-19.2-21.333334s6.4-21.333333 19.2-21.333333h260.266667c10.666667 0 19.2 8.533333 19.2 21.333333s-6.4 21.333333-19.2 21.333334z m0 170.666666H616.533333c-10.666667 0-19.2-8.533333-19.2-21.333333s6.4-21.333333 19.2-21.333333h260.266667c10.666667 0 19.2 8.533333 19.2 21.333333s-6.4 21.333333-19.2 21.333333zM339.2 256c76.8 0 136.533333 61.866667 136.533333 136.533333 0 46.933333-23.466667 87.466667-59.733333 113.066667 76.8 32 132.266667 106.666667 132.266667 194.133333 0 10.666667-8.533333 19.2-19.2 19.2s-19.2-8.533333-19.2-19.2c0-93.866667-76.8-170.666667-170.666667-170.666666s-170.666667 76.8-170.666667 170.666666c0 10.666667-8.533333 19.2-19.2 19.2s-19.2-8.533333-19.2-19.2c0-87.466667 55.466667-164.266667 132.266667-194.133333-36.266667-25.6-59.733333-66.133333-59.733333-113.066667-2.133333-74.666667 59.733333-136.533333 136.533333-136.533333z m537.6 405.333333c10.666667 0 19.2 8.533333 19.2 21.333334s-6.4 21.333333-19.2 21.333333H616.533333c-10.666667 0-19.2-8.533333-19.2-21.333333s6.4-21.333333 19.2-21.333334h260.266667zM339.2 296.533333c-53.333333 0-98.133333 42.666667-98.133333 98.133334 0 53.333333 42.666667 98.133333 98.133333 98.133333 53.333333 0 98.133333-42.666667 98.133333-98.133333-2.133333-55.466667-44.8-98.133333-98.133333-98.133334z" fill="#57CC92" /></svg>